<svg width="200" height="40" viewBox="0 0 200 40" fill="none" xmlns="http://www.w3.org/2000/svg">
<path d="M74.6735 30.64H74.8535C75.0215 30.64 75.1775 30.568 75.3215 30.424C75.4655 30.28 75.5855 30.112 75.6815 29.92C75.8015 29.728 75.8855 29.524 75.9335 29.308C75.9815 29.068 76.0055 28.852 76.0055 28.66V9.724L66.7175 31.396L57.8975 10.84V28.66C57.8975 28.852 57.9215 29.068 57.9695 29.308C58.0175 29.524 58.0895 29.728 58.1855 29.92C58.3055 30.112 58.4375 30.28 58.5815 30.424C58.7255 30.568 58.8935 30.64 59.0855 30.64H59.2655V31H55.3415V30.64H55.5215C55.6895 30.64 55.8455 30.568 55.9895 30.424C56.1335 30.28 56.2535 30.112 56.3495 29.92C56.4455 29.728 56.5175 29.524 56.5655 29.308C56.6135 29.068 56.6375 28.852 56.6375 28.66V9.472C56.6375 9.304 56.6135 9.112 56.5655 8.896C56.5175 8.68 56.4455 8.476 56.3495 8.284C56.2535 8.092 56.1335 7.936 55.9895 7.816C55.8455 7.672 55.6895 7.6 55.5215 7.6H55.3415V7.24H59.0135L67.3655 26.932L75.7175 7.24H79.7855V7.6H79.6055C79.4135 7.6 79.2455 7.672 79.1015 7.816C78.9575 7.936 78.8255 8.092 78.7055 8.284C78.6095 8.476 78.5375 8.68 78.4895 8.896C78.4415 9.112 78.4175 9.304 78.4175 9.472V28.66C78.4175 28.852 78.4415 29.068 78.4895 29.308C78.5375 29.524 78.6095 29.728 78.7055 29.92C78.8255 30.112 78.9575 30.28 79.1015 30.424C79.2455 30.568 79.4135 30.64 79.6055 30.64H79.7855V31H74.6735V30.64ZM83.7939 31V30.64C83.9859 30.64 84.1539 30.568 84.2979 30.424C84.4419 30.28 84.5619 30.112 84.6579 29.92C84.7539 29.728 84.8259 29.524 84.8739 29.308C84.9219 29.068 84.9459 28.852 84.9459 28.66V18.688C84.9459 18.28 84.8859 17.896 84.7659 17.536C84.6459 17.152 84.2979 16.948 83.7219 16.924V16.6L87.3219 15.448V28.66C87.3219 28.852 87.3459 29.068 87.3939 29.308C87.4419 29.524 87.5139 29.728 87.6099 29.92C87.7059 30.112 87.8259 30.28 87.9699 30.424C88.1139 30.568 88.2819 30.64 88.4739 30.64V31H83.7939ZM83.9739 11.992C83.9739 11.512 84.1299 11.104 84.4419 10.768C84.7779 10.432 85.1859 10.264 85.6659 10.264C86.1459 10.264 86.5539 10.432 86.8899 10.768C87.2259 11.104 87.3939 11.512 87.3939 11.992C87.3939 12.472 87.2259 12.868 86.8899 13.18C86.5539 13.492 86.1459 13.648 85.6659 13.648C85.1859 13.648 84.7779 13.492 84.4419 13.18C84.1299 12.868 83.9739 12.472 83.9739 11.992ZM106.797 28.66C106.797 28.852 106.821 29.068 106.869 29.308C106.917 29.524 106.989 29.728 107.085 29.92C107.205 30.112 107.325 30.28 107.445 30.424C107.589 30.568 107.757 30.64 107.949 30.64V31H103.305V30.64C103.473 30.64 103.629 30.568 103.773 30.424C103.917 30.28 104.037 30.112 104.133 29.92C104.253 29.728 104.337 29.524 104.385 29.308C104.433 29.068 104.457 28.852 104.457 28.66V21.964C104.457 21.1 104.337 20.344 104.097 19.696C103.857 19.048 103.533 18.508 103.125 18.076C102.717 17.644 102.249 17.332 101.721 17.14C101.217 16.924 100.701 16.816 100.173 16.816C99.6451 16.816 99.1171 16.924 98.5891 17.14C98.0851 17.356 97.6291 17.644 97.2211 18.004C96.8371 18.34 96.5131 18.748 96.2491 19.228C96.0091 19.684 95.8891 20.164 95.8891 20.668V28.66C95.8891 28.852 95.9131 29.068 95.9611 29.308C96.0091 29.524 96.0811 29.728 96.1771 29.92C96.2971 30.112 96.4171 30.28 96.5371 30.424C96.6811 30.568 96.8491 30.64 97.0411 30.64V31H92.3611V30.64C92.5291 30.64 92.6851 30.568 92.8291 30.424C92.9731 30.28 93.0931 30.112 93.1891 29.92C93.3091 29.728 93.3931 29.524 93.4411 29.308C93.4891 29.068 93.5131 28.852 93.5131 28.66V18.724C93.5131 18.316 93.4531 17.932 93.3331 17.572C93.2131 17.188 92.8651 16.984 92.2891 16.96V16.636L95.8891 15.484V17.464C96.0571 17.272 96.2731 17.068 96.5371 16.852C96.8011 16.612 97.1131 16.396 97.4731 16.204C97.8571 15.988 98.2891 15.82 98.7691 15.7C99.2731 15.556 99.8611 15.484 100.533 15.484C101.661 15.484 102.621 15.676 103.413 16.06C104.205 16.444 104.853 16.948 105.357 17.572C105.861 18.172 106.221 18.844 106.437 19.588C106.677 20.308 106.797 21.016 106.797 21.712V28.66ZM122.933 31V29.416C122.525 29.872 121.973 30.292 121.277 30.676C120.605 31.06 119.753 31.252 118.721 31.252C117.449 31.252 116.333 31.036 115.373 30.604C114.437 30.148 113.657 29.56 113.033 28.84C112.409 28.12 111.941 27.304 111.629 26.392C111.341 25.456 111.197 24.496 111.197 23.512C111.197 22.552 111.353 21.604 111.665 20.668C111.977 19.708 112.445 18.856 113.069 18.112C113.693 17.368 114.473 16.768 115.409 16.312C116.345 15.856 117.425 15.628 118.649 15.628C119.465 15.628 120.269 15.784 121.061 16.096C121.853 16.384 122.477 16.768 122.933 17.248V10.228C122.933 9.82 122.873 9.436 122.753 9.076C122.633 8.716 122.285 8.524 121.709 8.5V8.14L125.309 7.024V28.66C125.309 28.852 125.333 29.068 125.381 29.308C125.429 29.524 125.501 29.728 125.597 29.92C125.693 30.112 125.813 30.28 125.957 30.424C126.101 30.568 126.269 30.64 126.461 30.64V31H122.933ZM118.973 30.064C119.477 30.064 119.969 29.968 120.449 29.776C120.929 29.56 121.349 29.284 121.709 28.948C122.069 28.588 122.357 28.18 122.573 27.724C122.813 27.244 122.933 26.728 122.933 26.176V21.244C122.933 20.572 122.789 19.972 122.501 19.444C122.213 18.892 121.853 18.424 121.421 18.04C120.989 17.656 120.509 17.368 119.981 17.176C119.477 16.96 118.985 16.852 118.505 16.852C117.713 16.852 117.005 17.044 116.381 17.428C115.757 17.788 115.229 18.268 114.797 18.868C114.365 19.444 114.041 20.104 113.825 20.848C113.609 21.568 113.501 22.288 113.501 23.008C113.501 23.848 113.621 24.688 113.861 25.528C114.101 26.344 114.449 27.088 114.905 27.76C115.385 28.408 115.961 28.948 116.633 29.38C117.305 29.812 118.085 30.04 118.973 30.064ZM134.946 30.64H135.126V31H129.978V30.64H130.158C130.35 30.64 130.518 30.58 130.662 30.46C130.806 30.316 130.926 30.148 131.022 29.956C131.142 29.764 131.226 29.56 131.274 29.344C131.322 29.128 131.346 28.924 131.346 28.732V9.472C131.346 9.304 131.322 9.112 131.274 8.896C131.226 8.68 131.154 8.476 131.058 8.284C130.962 8.092 130.83 7.936 130.662 7.816C130.518 7.672 130.35 7.6 130.158 7.6H129.978V7.24H143.802V10.588H143.442C143.442 10.036 143.25 9.556 142.866 9.148C142.506 8.716 141.93 8.5 141.138 8.5H133.758V17.608H139.734C140.286 17.608 140.742 17.44 141.102 17.104C141.486 16.768 141.678 16.372 141.678 15.916H142.038V20.416H141.678C141.678 19.984 141.498 19.612 141.138 19.3C140.778 18.988 140.31 18.832 139.734 18.832H133.758V28.732C133.758 28.924 133.782 29.128 133.83 29.344C133.878 29.56 133.95 29.764 134.046 29.956C134.166 30.148 134.298 30.316 134.442 30.46C134.586 30.58 134.754 30.64 134.946 30.64ZM146.645 31V30.64C146.837 30.64 147.005 30.568 147.149 30.424C147.293 30.28 147.413 30.112 147.509 29.92C147.629 29.728 147.713 29.524 147.761 29.308C147.809 29.068 147.833 28.852 147.833 28.66V10.228C147.833 9.82 147.773 9.436 147.653 9.076C147.533 8.716 147.173 8.524 146.573 8.5V8.14L150.209 7.024V28.66C150.209 28.852 150.233 29.068 150.281 29.308C150.329 29.524 150.401 29.728 150.497 29.92C150.617 30.112 150.737 30.28 150.857 30.424C151.001 30.568 151.169 30.64 151.361 30.64V31H146.645ZM162.393 31.252C161.193 31.252 160.113 31.06 159.153 30.676C158.193 30.268 157.365 29.728 156.669 29.056C155.997 28.36 155.469 27.544 155.085 26.608C154.725 25.672 154.545 24.652 154.545 23.548C154.545 22.372 154.749 21.304 155.157 20.344C155.565 19.36 156.129 18.52 156.849 17.824C157.569 17.128 158.421 16.588 159.405 16.204C160.389 15.82 161.457 15.628 162.609 15.628C163.761 15.628 164.817 15.82 165.777 16.204C166.737 16.564 167.565 17.08 168.261 17.752C168.957 18.424 169.497 19.228 169.881 20.164C170.265 21.076 170.457 22.084 170.457 23.188C170.457 24.22 170.277 25.228 169.917 26.212C169.581 27.172 169.065 28.024 168.369 28.768C167.697 29.512 166.857 30.112 165.849 30.568C164.865 31.024 163.713 31.252 162.393 31.252ZM162.177 16.816C161.313 16.864 160.545 17.08 159.873 17.464C159.225 17.824 158.673 18.304 158.217 18.904C157.785 19.48 157.449 20.14 157.209 20.884C156.993 21.628 156.885 22.384 156.885 23.152C156.885 24.04 157.017 24.904 157.281 25.744C157.569 26.56 157.965 27.292 158.469 27.94C158.997 28.588 159.621 29.104 160.341 29.488C161.061 29.872 161.865 30.064 162.753 30.064C163.641 30.064 164.421 29.872 165.093 29.488C165.789 29.104 166.365 28.612 166.821 28.012C167.277 27.388 167.613 26.692 167.829 25.924C168.069 25.156 168.189 24.388 168.189 23.62C168.189 22.828 168.069 22.036 167.829 21.244C167.589 20.428 167.217 19.696 166.713 19.048C166.209 18.376 165.573 17.836 164.805 17.428C164.061 17.02 163.185 16.816 162.177 16.816ZM195.745 16.24C195.313 16.24 194.977 16.36 194.737 16.6C194.521 16.84 194.317 17.2 194.125 17.68L188.689 31.288L184.045 19.912L179.437 31.252L174.109 18.076C173.941 17.668 173.725 17.26 173.461 16.852C173.221 16.444 172.897 16.24 172.489 16.24V15.88H177.421V16.24C177.253 16.24 177.037 16.324 176.773 16.492C176.533 16.636 176.413 16.888 176.413 17.248C176.413 17.296 176.425 17.404 176.449 17.572C176.497 17.716 176.545 17.848 176.593 17.968L180.121 26.68L184.657 15.484L189.229 26.68L192.793 17.824C192.913 17.464 192.973 17.212 192.973 17.068C192.973 16.876 192.913 16.696 192.793 16.528C192.673 16.36 192.469 16.264 192.181 16.24V15.88H195.745V16.24Z" fill="black"/>
<path fill-rule="evenodd" clip-rule="evenodd" d="M26.7252 0L24.7571 4.62571L35.4121 15.2927L40 13.3526L26.7252 0Z" fill="black"/>
<path fill-rule="evenodd" clip-rule="evenodd" d="M8.25823 15.2902C8.25823 15.2902 10.6149 25.8643 0 36.4912C0.243184 36.7372 0.50141 36.9932 0.757129 37.2492L17.7148 20.2723C17.4892 19.7879 17.3513 19.2533 17.3513 18.6836C17.3513 16.6054 19.036 14.9187 21.1119 14.9187C23.1877 14.9187 24.8725 16.6054 24.8725 18.6836C24.8725 20.7618 23.1877 22.4484 21.1119 22.4484C20.5227 22.4484 19.9712 22.3003 19.4723 22.0569L2.52961 39.0237C2.86556 39.36 3.12379 39.6185 3.50486 40C14.1573 29.338 24.722 31.7375 24.722 31.7375L31.6365 16.5426L23.3757 8.27258L8.25823 15.2902Z" fill="black"/>
</svg>
