<svg width="100" height="100" viewBox="0 0 100 100" fill="none" xmlns="http://www.w3.org/2000/svg">
<path fill-rule="evenodd" clip-rule="evenodd" d="M66.8128 0L61.8927 11.5643L88.5301 38.2318L99.9999 33.3814L66.8128 0Z" fill="black"/>
<path fill-rule="evenodd" clip-rule="evenodd" d="M20.6456 38.2255C20.6456 38.2255 26.5371 64.6609 0 91.228C0.60796 91.8429 1.25353 92.4829 1.89282 93.1229L44.2871 50.6808C43.723 49.4698 43.3783 48.1333 43.3783 46.7089C43.3783 41.5135 47.5901 37.2969 52.7797 37.2969C57.9693 37.2969 62.1811 41.5135 62.1811 46.7089C62.1811 51.9044 57.9693 56.121 52.7797 56.121C51.3068 56.121 49.9279 55.7508 48.6807 55.1421L6.32404 97.5591C7.1639 98.4 7.80946 99.0462 8.76214 100C35.3933 73.3451 61.8051 79.3437 61.8051 79.3437L79.0912 41.3566L58.4394 20.6814L20.6456 38.2255Z" fill="black"/>
</svg>
